<svg width="97" height="37" viewBox="0 0 97 37" fill="none" xmlns="http://www.w3.org/2000/svg">
<g clip-path="url(#clip0_28_131)">
<path d="M8.52121 13.8396L6.37934 8.64612L5.02385 16.4967C4.91176 17.0778 4.58668 17.3675 4.04863 17.3657H0.776322C0.174459 17.3657 -0.0712875 17.0761 0.0390828 16.4967L2.69056 1.13427C2.78627 0.556633 3.10445 0.262565 3.6425 0.262565H6.72597C7.21746 0.262565 7.53564 0.422727 7.67792 0.745676L10.2259 7.1469L15.0193 0.748302C15.1335 0.590243 15.2844 0.463224 15.4586 0.378497C15.6328 0.293769 15.8248 0.25395 16.0178 0.262565H19.2539C19.8566 0.262565 20.1101 0.554007 20.017 1.13164L17.35 16.4967C17.2387 17.0769 16.9154 17.3657 16.3748 17.3657H13.0921C12.4868 17.3657 12.2402 17.0761 12.3523 16.4967L13.7103 8.64612L9.76029 13.8396C9.6872 13.9512 9.58799 14.0428 9.47153 14.106C9.35506 14.1692 9.22498 14.2022 9.0929 14.2019C8.97242 14.2088 8.85279 14.1776 8.75044 14.1128C8.64808 14.0479 8.56801 13.9525 8.52121 13.8396Z" fill="#F2F2F2"/>
<path d="M30.7002 0.262552C30.8138 0.249488 30.929 0.259613 31.0387 0.292331C31.1485 0.32505 31.2507 0.379703 31.3394 0.45308C31.4281 0.526458 31.5014 0.61708 31.5551 0.719627C31.6088 0.822173 31.6418 0.934576 31.6521 1.05023L33.913 16.3391C33.9428 16.4691 33.9455 16.604 33.921 16.7351C33.8965 16.8662 33.8453 16.9907 33.7707 17.1005C33.691 17.1917 33.5917 17.2628 33.4803 17.3084C33.369 17.3539 33.2488 17.3727 33.1292 17.3631H29.5827C28.9963 17.3631 28.679 17.1005 28.6307 16.5754L28.4393 14.7034H23.8943L23.0613 16.5623C22.9754 16.7976 22.8193 16.9999 22.6149 17.1411C22.4104 17.2822 22.1677 17.3553 21.9205 17.35H18.2318C18.1178 17.3641 18.0023 17.3449 17.8987 17.2947C17.7951 17.2445 17.7079 17.1653 17.6471 17.0664C17.5986 16.9444 17.5811 16.8119 17.596 16.6812C17.6109 16.5505 17.6578 16.4257 17.7325 16.3181L25.3222 1.05023C25.4017 0.819558 25.5501 0.619759 25.7466 0.478598C25.9432 0.337436 26.1782 0.261924 26.419 0.262552H30.7002ZM28.3203 10.4079L27.8469 5.43499H27.7745L25.4464 10.4236L28.3203 10.4079Z" fill="#F2F2F2"/>
<path d="M45.5872 16.0372C44.1835 17.1014 42.4029 17.6336 40.2455 17.6336C37.738 17.6336 35.7944 17.231 34.4148 16.4258C33.9854 16.1842 33.8992 15.8219 34.1561 15.3388L35.3926 13.0913C35.6927 12.5451 36.0833 12.3745 36.5593 12.5845C37.5846 13.0525 38.6945 13.2992 39.8187 13.3092C41.5432 13.3092 42.4055 12.939 42.4055 12.1986C42.4055 11.7469 41.6915 11.2638 40.2636 10.7492C39.713 10.5531 39.1762 10.3189 38.6572 10.0482C38.182 9.79105 37.7354 9.48298 37.325 9.12922C36.889 8.76005 36.5429 8.29372 36.3135 7.76653C36.0683 7.18626 35.9467 6.55994 35.9566 5.92861C35.9566 3.91565 36.6188 2.42781 37.9432 1.46509C39.2677 0.502366 41.0345 0.0140039 43.2436 6.54662e-07C44.2603 -0.0070139 45.2743 0.106659 46.265 0.338703C47.0007 0.491436 47.7108 0.75144 48.3732 1.11063C48.7992 1.36794 48.8854 1.73027 48.6319 2.19763L47.4653 4.32437C47.1807 4.83899 46.7841 5.0079 46.2753 4.83111C45.2961 4.48818 44.2665 4.31682 43.2306 4.32437C41.8803 4.32437 41.2078 4.64469 41.2078 5.29059C41.2242 5.44731 41.2783 5.59753 41.3653 5.72803C41.4524 5.85852 41.5697 5.96527 41.707 6.03889C42.2114 6.36225 42.7503 6.6265 43.3134 6.82657C43.8866 7.0435 44.4471 7.29333 44.9923 7.57487C45.4574 7.82987 45.9027 8.1204 46.3245 8.44394C46.7719 8.77278 47.1283 9.21318 47.3592 9.72261C47.5899 10.2642 47.7037 10.8498 47.6929 11.4398C47.6929 13.4405 46.991 14.9729 45.5872 16.0372Z" fill="#F2F2F2"/>
<path d="M58.6299 16.0372C57.2244 17.1014 55.4429 17.6336 53.2855 17.6336C50.7798 17.6336 48.8362 17.231 47.4549 16.4258C47.0289 16.1842 46.9427 15.8219 47.1962 15.3388L48.4353 13.0913C48.7353 12.5451 49.1234 12.3745 49.5993 12.5845C50.6256 13.0525 51.7363 13.2992 52.8613 13.3092C54.5858 13.3092 55.4481 12.939 55.4481 12.1986C55.4481 11.7469 54.7341 11.2638 53.3062 10.7492C52.7556 10.5531 52.2189 10.3189 51.6998 10.0482C51.2254 9.78979 50.7789 9.4818 50.3676 9.12922C49.9324 8.75934 49.5864 8.29319 49.3562 7.76653C49.111 7.18625 48.9893 6.55994 48.9992 5.92861C48.9992 3.91565 49.6614 2.42781 50.9859 1.46509C52.3103 0.502365 54.0762 0.0140029 56.2836 -2.98925e-07C57.3012 -0.00700354 58.3161 0.106668 59.3076 0.338702C60.0461 0.490382 60.7589 0.750419 61.4236 1.11063C61.853 1.36794 61.9393 1.73027 61.6823 2.19763L60.5312 4.32437C60.2466 4.84949 59.8483 5.00702 59.3412 4.83111C58.3611 4.48818 57.3307 4.31683 56.294 4.32437C54.9463 4.32437 54.2711 4.64469 54.2711 5.29059C54.2851 5.44536 54.336 5.59434 54.4194 5.72471C54.5027 5.85507 54.6161 5.96289 54.7497 6.03889C55.2541 6.36225 55.793 6.6265 56.3561 6.82657C56.9292 7.0435 57.4897 7.29333 58.0349 7.57486C58.5 7.82987 58.9454 8.1204 59.3671 8.44394C59.8146 8.77278 60.171 9.21318 60.4018 9.72261C60.6326 10.2642 60.7464 10.8498 60.7355 11.4398C60.7355 13.4405 60.0336 14.9729 58.6299 16.0372Z" fill="#F2F2F2"/>
<path d="M63.3767 1.13427C63.4724 0.55664 63.788 0.265198 64.3286 0.265198H67.8027C68.4054 0.265198 68.6589 0.55664 68.5632 1.13427L65.8988 16.4967C65.7867 17.0778 65.4616 17.3675 64.9236 17.3658H61.4495C60.8459 17.3658 60.6002 17.0761 60.7122 16.4967L63.3767 1.13427Z" fill="#F2F2F2"/>
<path d="M72.0864 17.3657C71.9751 17.3795 71.8621 17.3703 71.7544 17.3386C71.6467 17.3069 71.5464 17.2533 71.4596 17.1812C71.3728 17.1091 71.3013 17.0198 71.2494 16.9189C71.1976 16.8179 71.1664 16.7073 71.1578 16.5938L69.0392 1.31279C69.0104 1.18332 69.0073 1.04936 69.0299 0.918653C69.0526 0.78795 69.1006 0.663107 69.1711 0.55136C69.2448 0.454273 69.341 0.377127 69.4511 0.326751C69.5612 0.276375 69.6818 0.254322 69.8023 0.262544H73.3954C73.9989 0.262544 74.324 0.525104 74.3706 1.05023L74.8698 8.05534L74.9888 11.9202H75.0845L76.5357 8.05534L79.5106 1.05023C79.5824 0.809964 79.7321 0.601405 79.9355 0.458413C80.1388 0.315422 80.3838 0.246396 80.6306 0.262544H84.366C84.4804 0.249045 84.5961 0.26937 84.6994 0.321073C84.8026 0.372776 84.889 0.453657 84.948 0.553986C85.0002 0.675706 85.0221 0.8086 85.0117 0.940935C85.0014 1.07327 84.959 1.20098 84.8885 1.31279L77.4411 16.5938C77.3336 16.8221 77.1793 17.0244 76.9884 17.1872C76.7917 17.3182 76.5584 17.3808 76.3236 17.3657H72.0864Z" fill="#F2F2F2"/>
<path d="M88.7454 10.765L88.3419 13.0125H94.1596C94.7615 13.0125 95.0159 13.3022 94.9227 13.8816L94.47 16.4888C94.3597 17.0699 94.0346 17.3596 93.4948 17.3579H83.4063C82.8027 17.3579 82.5569 17.0682 82.669 16.4888L85.3334 1.1264C85.4292 0.548766 85.7473 0.257324 86.2854 0.257324H96.2291C96.8318 0.257324 97.0853 0.548766 96.9896 1.1264L96.5369 3.73625C96.4412 4.31651 96.1178 4.60532 95.5617 4.60532H89.8164L89.4594 6.61128H94.7649C95.353 6.61128 95.5996 6.90098 95.5048 7.48036L95.0754 9.91954C95.0692 10.0391 95.0394 10.1561 94.9879 10.2638C94.9364 10.3715 94.8641 10.4676 94.7753 10.5464C94.6866 10.6252 94.5832 10.6852 94.4712 10.7227C94.3592 10.7603 94.241 10.7746 94.1234 10.765H88.7454Z" fill="#F2F2F2"/>
<path d="M4.81139 20.4797C4.9071 19.8995 5.22269 19.6107 5.76333 19.6107H17.0444C17.6462 19.6107 17.8998 19.9003 17.8049 20.4797L17.3057 23.3679C17.2968 23.493 17.2637 23.615 17.208 23.727C17.1524 23.839 17.0755 23.9386 16.9816 24.0202C16.8878 24.1017 16.779 24.1636 16.6614 24.2022C16.5438 24.2407 16.4199 24.2552 16.2968 24.2448H13.2366L11.237 35.8395C11.1266 36.4189 10.8016 36.7086 10.2618 36.7086H6.78771C6.1824 36.7086 5.93579 36.4189 6.04788 35.8395L8.04748 24.2448H5.02609C4.43458 24.2448 4.19659 23.9525 4.31214 23.3679L4.81139 20.4797Z" fill="#F2F2F2"/>
<path d="M25.6585 30.3573H21.8507L20.8988 35.8395C20.7867 36.4189 20.4616 36.7086 19.9236 36.7086H16.4495C15.8459 36.7086 15.6002 36.4189 15.7122 35.8395L18.3663 20.4797C18.462 19.8995 18.7776 19.6107 19.3183 19.6107H22.8027C23.4063 19.6107 23.6598 19.9003 23.5632 20.4797L22.6604 25.7309H26.4682L27.371 20.4797C27.4675 19.9003 27.7849 19.6107 28.3229 19.6107H31.797C32.4023 19.6107 32.661 19.9003 32.573 20.4797L29.8931 35.8395C29.7845 36.4189 29.4594 36.7086 28.9179 36.7086H25.4438C24.8419 36.7086 24.5962 36.4189 24.7066 35.8395L25.6585 30.3573Z" fill="#F2F2F2"/>
<path d="M37.2733 30.1157L36.8671 32.3606H42.6823C43.285 32.3606 43.5385 32.652 43.4428 33.2297L42.9927 35.8395C42.8823 36.4189 42.5564 36.7086 42.0149 36.7086H31.9263C31.3245 36.7086 31.0787 36.4189 31.1891 35.8395L33.8458 20.4797C33.9415 19.8995 34.2571 19.6107 34.7977 19.6107H44.7517C45.3553 19.6107 45.6097 19.9003 45.5148 20.4797L45.0621 23.0896C45.0559 23.2122 45.0256 23.3323 44.9729 23.4429C44.9202 23.5534 44.8462 23.6521 44.7553 23.7331C44.6644 23.8141 44.5584 23.8758 44.4436 23.9145C44.3288 23.9533 44.2075 23.9683 44.0869 23.9587H38.3442L37.9872 25.962H43.2928C43.8791 25.962 44.1249 26.2526 44.03 26.8337L43.6032 29.2729C43.5966 29.3923 43.5667 29.5092 43.515 29.6167C43.4634 29.7242 43.3911 29.8201 43.3024 29.8989C43.2138 29.9776 43.1105 30.0376 42.9986 30.0753C42.8868 30.113 42.7687 30.1276 42.6512 30.1183L37.2733 30.1157Z" fill="#F2F2F2"/>
<path d="M58.5239 20.8998C59.7138 21.95 60.3088 23.5648 60.3088 25.744C60.3046 26.5707 60.225 27.3952 60.0708 28.2069C59.0361 34.0672 56.0138 36.9982 51.004 37C48.9087 37 47.2704 36.4749 46.0891 35.4246C44.9078 34.3744 44.3171 32.7684 44.3171 30.6067C44.3204 29.7713 44.4 28.938 44.5551 28.1176C45.5898 22.2572 48.6078 19.3262 53.6089 19.3244C55.6939 19.3192 57.3322 19.8443 58.5239 20.8998ZM53.6089 31.4915C54.1418 30.8141 54.5428 29.7026 54.8118 28.157C54.9218 27.5273 54.9849 26.8901 55.0006 26.2508C55.0006 24.6229 54.3582 23.8098 53.0735 23.8116C52.676 23.8027 52.2822 23.89 51.9246 24.0662C51.567 24.2425 51.2559 24.5026 51.017 24.8251C50.4841 25.5025 50.0831 26.6131 49.8141 28.157C49.7036 28.7875 49.6396 29.4256 49.6227 30.0658C49.6227 31.6937 50.2659 32.5067 51.5524 32.505C51.9499 32.5139 52.3437 32.4266 52.7013 32.2503C53.0589 32.0741 53.37 31.814 53.6089 31.4915Z" fill="#F2F2F2"/>
<path d="M69.091 19.608C73.4523 19.608 75.6339 21.1703 75.6356 24.2947C75.6296 24.8047 75.5812 25.3133 75.4907 25.815C75.0803 28.199 73.7636 29.8741 71.5407 30.8404L73.5636 35.6216C73.6277 35.7419 73.6632 35.8758 73.6673 36.0126C73.6713 36.1494 73.6438 36.2852 73.5868 36.4093C73.5244 36.5162 73.4328 36.6026 73.3231 36.658C73.2134 36.7135 73.0903 36.7356 72.9686 36.7217H69.6859C69.1151 36.7217 68.7417 36.488 68.5658 36.0207L66.8767 31.649H65.472L64.7348 35.85C64.6236 36.4303 64.308 36.7191 63.7828 36.7191H60.3553C59.7379 36.7191 59.4844 36.4294 59.5948 35.85L62.2592 20.4797C62.3558 19.9003 62.6731 19.6107 63.2112 19.6107L69.091 19.608ZM67.901 27.5295C68.646 27.5295 69.1944 27.3903 69.5773 27.1068C69.9806 26.7722 70.241 26.2925 70.3042 25.7677C70.3392 25.5764 70.3548 25.382 70.3507 25.1874C70.3507 24.7201 70.2085 24.3998 69.9239 24.2212C69.6394 24.0427 69.1686 23.9587 68.5193 23.9587H66.8068L66.186 27.5321L67.901 27.5295Z" fill="#F2F2F2"/>
<path d="M83.8461 35.8395C83.7357 36.4189 83.4106 36.7086 82.8709 36.7086H79.3942C78.7906 36.7086 78.5449 36.4189 78.657 35.8395L79.6089 30.4045L76.0391 20.6898C75.9917 20.5682 75.9735 20.4369 75.9861 20.3067C75.9987 20.1766 76.0417 20.0513 76.1115 19.9415C76.1789 19.832 76.2739 19.7428 76.3867 19.6832C76.4996 19.6236 76.6261 19.5959 76.7531 19.6028H80.3461C80.5879 19.5828 80.8287 19.6512 81.025 19.7957C81.2214 19.9401 81.3605 20.1511 81.4171 20.3904L82.4182 24.2317L82.8217 26.3322H82.9174L84.0349 24.2317L86.4148 20.3904C86.7338 19.8653 87.1382 19.6028 87.628 19.6028H91.2702C91.3884 19.5938 91.5063 19.6229 91.6072 19.6861C91.708 19.7493 91.7866 19.8433 91.8315 19.9546C91.8758 20.0809 91.8859 20.2168 91.8609 20.3484C91.8359 20.48 91.7766 20.6024 91.6893 20.7029L84.7877 30.4176L83.8461 35.8395Z" fill="#F2F2F2"/>
</g>
<defs>
<clipPath id="clip0_28_131">
<rect width="97" height="37" fill="white"/>
</clipPath>
</defs>
</svg>
